# AST/ASF file generated using VICON BodyLanguage
# -----------------------------------------------
:version 1.10
:name VICON
:units
  mass 1.0
  length 0.45
  angle deg
:documentation
   .ast/.asf automatically generated from VICON data using
   VICON BodyBuilder and BodyLanguage model FoxedUp or BRILLIANT.MOD
:root
   order TX TY TZ RX RY RZ
   axis XYZ
   position 0 0 0  
   orientation 0 0 0 
:bonedata
  begin
     id 1 
     name lhipjoint
     direction 0.589753 -0.68606 0.426044 
     length 2.54082 
     axis 0 0 0  XYZ
  end
  begin
     id 2 
     name lfemur
     direction 0.34202 -0.939693 0  
     length 7.04539  
     axis 0 0 20  XYZ
    dof rx ry rz
    limits (-160.0 20.0)
           (-70.0 70.0)
           (-60.0 70.0)
  end
  begin
     id 3 
     name ltibia
     direction 0.34202 -0.939693 0   
     length 7.83772   
     axis 0 0 20   XYZ
    dof rx
    limits (-10.0 170.0)
  end
  begin
     id 4 
     name lfoot
     direction 0.0596604 -0.163915 0.984669   
     length 2.39542   
     axis -90 7.62852e-016 20   XYZ
    dof rx rz
    limits (-45.0 90.0)
           (-70.0 20.0)
  end
  begin
     id 5 
     name ltoes
     direction 1.53514e-011 -4.21954e-011 1   
     length 1.2047   
     axis -90 7.62852e-016 20   XYZ
    dof rx
    limits (-90.0 20.0)
  end
  begin
     id 6 
     name rhipjoint
     direction -0.580585 -0.69168 0.429534   
     length 2.52018  
     axis 0 0 0  XYZ 
  end
  begin
     id 7 
     name rfemur
     direction -0.34202 -0.939693 0   
     length 7.0101   
     axis 0 0 -20   XYZ
    dof rx ry rz
    limits (-160.0 20.0)
           (-70.0 70.0)
           (-70.0 60.0)
  end
  begin
     id 8 
     name rtibia
     direction -0.34202 -0.939693 0   
     length 7.70628   
     axis 0 0 -20   XYZ
    dof rx
    limits (-10.0 170.0)
 end
 begin
     id 9 
     name rfoot
     direction -0.0696237 -0.19129 0.979061   
     length 2.52466  
     axis -90 -7.62852e-016 -20   XYZ
    dof rx rz
    limits (-45.0 90.0)
           (-20.0 70.0)
  end
  begin
     id 10 
     name rtoes
     direction -1.53519e-011 -4.21793e-011 1   
     length 1.266   
     axis -90 -7.62852e-016 -20   XYZ
    dof rx
    limits (-90.0 20.0)
  end
  begin
     id 11 
     name lowerback
     direction 0.00381965 0.995707 -0.0924856   
     length 2.20825   
     axis 0 0 0   XYZ
    dof rx ry rz
    limits (-20.0 45.0)
           (-30.0 30.0)
           (-30.0 30.0)
  end
  begin
     id 12 
     name upperback
     direction -0.0139043 0.999634 -0.0231929   
     length 2.21517   
     axis 0 0 0   XYZ
    dof rx ry rz
    limits (-20.0 45.0)
           (-30.0 30.0)
           (-30.0 30.0)
  end
  begin
     id 13 
     name thorax
     direction -0.0143933 0.999691 0.0202892   
     length 2.22911   
     axis 0 0 0   XYZ
    dof rx ry rz
    limits (-20.0 45.0)
           (-30.0 30.0)
           (-30.0 30.0)
  end
  begin
     id 14 
     name lowerneck
     direction -0.0251153 0.981819 0.188153   
     length 1.61782   
     axis 0 0 0   XYZ
    dof rx ry rz
    limits (-20.0 45.0)
           (-30.0 30.0)
           (-30.0 30.0)
  end
  begin
     id 15 
     name upperneck
     direction 0.0563891 0.969357 -0.239095   
     length 1.64526   
     axis 0 0 0   XYZ
    dof rx ry rz
    limits (-20.0 45.0)
           (-30.0 30.0)
           (-30.0 30.0)
  end
  begin
     id 16
     name head
     direction 0.0208328 0.99459 -0.101773  
     length 1.67436  
     axis 0 0 0   XYZ
    dof rx ry rz
    limits (-20.0 45.0)
           (-30.0 30.0)
           (-30.0 30.0)
  end
  begin
     id 17 
     name lclavicle
     direction 0.917689 0.397224 0.00772059  
     length 3.31102  
     axis 0 0 0   XYZ
    dof ry rz
    limits (-20.0 10.0)
           (0.0 20.0)
  end
  begin
     id 18 
     name lhumerus
     direction 1 -4.4896e-011 2.32308e-027   
     length 5.25537   
     axis 180 -30 -90   XYZ
    dof rx ry rz
    limits (-60.0 90.0)
           (-90.0 90.0)
           (-90.0 90.0)
  end
  begin
     id 19
     name lradius
     direction 1 -4.49005e-011 -2.04271e-027   
     length 3.38855   
     axis 180 -30 -90   XYZ
    dof rx
    limits (-10.0 170.0)
  end
  begin
     id 20
     name lwrist
     direction 1 -4.48892e-011 2.56952e-028   
     length 1.69428   
     axis -5.12785e-016 90 90   XYZ
    dof ry
    limits (-180.0 0.0)
 end
  begin
     id 21 
     name lhand
     direction 1 -4.48966e-011 5.13905e-028   
     length 0.614516   
     axis -3.27915e-016 90 90   XYZ
    dof rx rz
    limits (-90.0 90.0)
           (-45.0 45.0)
  end
  begin
     id 22 
     name lfingers
     direction 1 -4.48979e-011 1.02781e-027   
     length 0.495439   
     axis -6.5583e-016 90 90   XYZ
    dof rx
    limits (0.0 90.0)
  end
  begin
     id 23
     name lthumb
     direction 0.707107 -6.35001e-011 0.707107   
     length 0.711354   
     axis -90 45 2.85299e-015   XYZ
    dof rx rz
    limits (-45.0 45.0)
           (-45.0 45.0)
  end
  begin
     id 24 
     name rclavicle
     direction -0.938556 0.342765 -0.0403177   
     length 3.27019  
     axis 0 0 0   XYZ 
    dof ry rz
    limits (-10.0 20.0)
           (-20.0 0.0)
  end
  begin
     id 25 
     name rhumerus
     direction -1 -4.48966e-011 2.52291e-027  
     length 5.38183   
     axis 180 30 90   XYZ
    dof rx ry rz
    limits (-90.0 60.0)
           (-90.0 90.0)
           (-90.0 90.0)
  end
  begin
     id 26 
     name rradius
     direction -1 -4.4896e-011 1.5797e-027   
     length 3.16988   
     axis 180 30 90   XYZ
    dof rx
    limits (-10.0 170.0)
  end
  begin
     id 27 
     name rwrist
     direction -1 -4.48947e-011 2.56952e-028   
     length 1.58494   
     axis -5.12785e-016 -90 -90   XYZ
    dof ry
    limits (-180.0 0.0)
  end
  begin
     id 28
     name rhand
     direction -1 -4.49098e-011 5.13905e-028   
     length 0.637679   
     axis -3.27915e-016 -90 -90   XYZ
    dof rx rz
    limits (-90.0 90.0)
           (-45.0 45.0)
  end
  begin
     id 29
     name rfingers
     direction -1 -4.49026e-011 1.02781e-027   
     length 0.514113   
     axis -6.5583e-016 -90 -90   XYZ
    dof rx
    limits (0.0 90.0)
  end
  begin
     id 30
     name rthumb
     direction -0.707107 -6.3491e-011 0.707107   
     length 0.738167   
     axis -90 -45 -2.85299e-015   XYZ
    dof rx rz
    limits (-45.0 45.0)
           (-45.0 45.0)
  end
:hierarchy
  begin
    root lhipjoint rhipjoint lowerback
    lhipjoint lfemur
    lfemur ltibia
    ltibia lfoot
    lfoot ltoes
    rhipjoint rfemur
    rfemur rtibia
    rtibia rfoot
    rfoot rtoes
    lowerback upperback
    upperback thorax
    thorax lowerneck lclavicle rclavicle
    lowerneck upperneck
    upperneck head
    lclavicle lhumerus
    lhumerus lradius
    lradius lwrist
    lwrist lhand lthumb
    lhand lfingers
    rclavicle rhumerus
    rhumerus rradius
    rradius rwrist
    rwrist rhand rthumb
    rhand rfingers
  end

#!OML:ASF H:\Swim\Project 1\Capture day 1\Session 1\swimmer.ASF
:FULLY-SPECIFIED
:DEGREES
315
root 7.96048 15.4801 29.728 -177.173 -8.34463 178.398
lowerback 11.0246 -0.618243 0.737972
upperback 3.60842 -1.1222 -1.46064
thorax -2.45884 -0.694838 -1.77969
lowerneck -31.4206 -2.15285 -5.71306
upperneck 16.4122 -2.57827 8.2242
head 10.5393 -0.519422 3.48408
rclavicle -1.76918e-014 1.59028e-015
rhumerus 37.9237 -13.4846 -61.0062
rradius 71.8957
rwrist 7.92177
rhand 43.4614 -6.47948
rfingers 7.12502
rthumb 65.1948 -13.3286
lclavicle -1.76918e-014 1.59028e-015
lhumerus 34.7696 8.93277 51.5825
lradius 76.5626
lwrist -6.99877
lhand 43.9877 11.9112
lfingers 7.12502
lthumb 65.6067 18.0445
rfemur -26.0782 -14.6881 5.84238
rtibia 52.8619
rfoot -19.5232 -17.5419
rtoes -12.1126
lfemur -31.31 3.62967 -11.37
ltibia 54.4421
lfoot -20.0435 7.47086
ltoes -11.188
316
root 7.9608 15.4832 29.7259 -177.161 -8.34455 178.398
lowerback 11.0046 -0.618548 0.729077
upperback 3.60645 -1.12299 -1.46121
thorax -2.44987 -0.694947 -1.77541
lowerneck -31.3945 -2.22544 -5.78516
upperneck 16.3256 -2.66371 8.30144
head 10.5127 -0.555601 3.50713
rclavicle 1.87852e-014 -9.54166e-015
rhumerus 37.8733 -13.4417 -60.997
rradius 71.8857
rwrist 7.91088
rhand 43.5303 -6.43753
rfingers 7.12502
rthumb 65.249 -13.1944
lclavicle 1.87852e-014 -9.54166e-015
lhumerus 34.718 8.90405 51.578
lradius 76.5624
lwrist -7.00383
lhand 43.9513 11.8856
lfingers 7.12502
lthumb 65.5784 18.0692
rfemur -26.0569 -14.6747 5.84939
rtibia 52.8131
rfoot -19.5128 -17.5524
rtoes -12.0983
lfemur -31.2881 3.62615 -11.3692
ltibia 54.3931
lfoot -20.0309 7.47066
ltoes -11.1747
317
root 7.96113 15.4867 29.7238 -177.15 -8.34538 178.398
lowerback 10.9891 -0.619699 0.719896
upperback 3.60343 -1.12496 -1.46237
thorax -2.4445 -0.695668 -1.77136
lowerneck -31.3608 -2.30502 -5.8614
upperneck 16.2286 -2.75757 8.38197
head 10.482 -0.595855 3.53028
rclavicle 2.71838e-014 -2.38542e-015
rhumerus 37.8238 -13.3952 -60.9828
rradius 71.8723
rwrist 7.90054
rhand 43.5869 -6.40323
rfingers 7.12502
rthumb 65.2935 -13.0839
lclavicle 2.71838e-014 -2.38542e-015
lhumerus 34.667 8.87286 51.5659
lradius 76.5587
lwrist -7.00851
lhand 43.9259 11.88
lfingers 7.12502
lthumb 65.5585 18.0987
rfemur -26.0308 -14.6601 5.85546
rtibia 52.7595
rfoot -19.5043 -17.5627
rtoes -12.0752
lfemur -31.2628 3.62078 -11.3694
ltibia 54.3396
lfoot -20.0123 7.47557
ltoes -11.1842
318
root 7.96142 15.4904 29.7217 -177.141 -8.34467 178.4
lowerback 10.9766 -0.620527 0.713593
upperback 3.59998 -1.12622 -1.46369
thorax -2.44117 -0.696049 -1.76914
lowerneck -31.3148 -2.39331 -5.93974
upperneck 16.1175 -2.86253 8.46361
head 10.4452 -0.641706 3.55178
rclavicle 1.33186e-014 1.31198e-014
rhumerus 37.7765 -13.3484 -60.9659
rradius 71.8563
rwrist 7.88838
rhand 43.6234 -6.384
rfingers 7.12502
rthumb 65.322 -13.0155
lclavicle 1.33186e-014 1.31198e-014
lhumerus 34.6191 8.83881 51.5466
lradius 76.5509
lwrist -7.01288
lhand 43.8998 11.8861
lfingers 7.12502
lthumb 65.5382 18.1407
rfemur -26.001 -14.6414 5.86386
rtibia 52.7015
rfoot -19.4984 -17.5726
rtoes -12.0439
lfemur -31.2341 3.61557 -11.3673
ltibia 54.2832
lfoot -19.9937 7.47812
ltoes -11.1735
319
root 7.96165 15.4943 29.7196 -177.135 -8.34478 178.401
lowerback 10.9719 -0.62101 0.709031
upperback 3.59491 -1.12689 -1.46606
thorax -2.44388 -0.696187 -1.76897
lowerneck -31.256 -2.49254 -6.02193
upperneck 15.9964 -2.98108 8.54668
head 10.4042 -0.694329 3.57173
rclavicle -1.41137e-014 -9.93923e-016
rhumerus 37.7279 -13.3024 -60.9455
rradius 71.8383
rwrist 7.87893
rhand 43.6315 -6.37698
rfingers 7.12502
rthumb 65.3284 -12.9974
lclavicle -1.41137e-014 -9.93923e-016
lhumerus 34.5739 8.79906 51.5205
lradius 76.5389
lwrist -7.01836
lhand 43.8677 11.8943
lfingers 7.12502
lthumb 65.5132 18.193
rfemur -25.964 -14.6203 5.87077
rtibia 52.6401
rfoot -19.4959 -17.5817
rtoes -11.9991
lfemur -31.1993 3.60805 -11.3655
ltibia 54.2242
lfoot -19.9761 7.48066
ltoes -11.1493
320
root 7.96181 15.4983 29.7175 -177.133 -8.34736 178.404
lowerback 10.9747 -0.621864 0.708125
upperback 3.58829 -1.1277 -1.46926
thorax -2.45239 -0.696427 -1.77159
lowerneck -31.1882 -2.60317 -6.10757
upperneck 15.8678 -3.11379 8.63039
head 10.3606 -0.753988 3.58978
rclavicle -9.24349e-015 3.37934e-015
rhumerus 37.6812 -13.2602 -60.9254
rradius 71.8189
rwrist 7.87594
rhand 43.6146 -6.37799
rfingers 7.12502
rthumb 65.3151 -13.0213
lclavicle -9.24349e-015 3.37934e-015
lhumerus 34.5315 8.75434 51.4874
lradius 76.5241
lwrist -7.02437
lhand 43.8221 11.8938
lfingers 7.12502
lthumb 65.4776 18.255
rfemur -25.9227 -14.6005 5.87835
rtibia 52.5777
rfoot -19.4934 -17.5918
rtoes -11.9528
lfemur -31.1617 3.59778 -11.3621
ltibia 54.1656
lfoot -19.9607 7.47843
ltoes -11.1082
321
root 7.96193 15.5022 29.7154 -177.132 -8.35298 178.407
lowerback 10.9825 -0.622494 0.709583
upperback 3.58031 -1.12797 -1.47329
thorax -2.46509 -0.696406 -1.77639
lowerneck -31.101 -2.72839 -6.2003
upperneck 15.7282 -3.26399 8.71622
head 10.3117 -0.822486 3.60634
rclavicle -1.78906e-014 -1.11319e-014
rhumerus 37.6381 -13.2249 -60.906
rradius 71.8001
rwrist 7.87887
rhand 43.5949 -6.3785
rfingers 7.12502
rthumb 65.2997 -13.0484
lclavicle -1.78906e-014 -1.11319e-014
lhumerus 34.4929 8.70318 51.4486
lradius 76.5081
lwrist -7.02979
lhand 43.7643 11.8819
lfingers 7.12502
lthumb 65.4324 18.3222
rfemur -25.8785 -14.5818 5.88521
rtibia 52.5161
rfoot -19.4911 -17.6028
rtoes -11.8953
lfemur -31.1232 3.58484 -11.3587
ltibia 54.1081
lfoot -19.9445 7.47602
ltoes -11.0675
